<svg width="40" height="40" xmlns="http://www.w3.org/2000/svg"><g opacity=".52"><path d="M11.688 36.635c-.178-.072-.352-.163-.536-.213-2.065-.557-3.483-2.305-3.502-4.452-.032-3.616-.016-7.232-.013-10.848 0-.87.44-1.395 1.126-1.383.677.012 1.143.559 1.145 1.405.009 3.39.001 6.78.005 10.17.003 2.14.843 2.983 2.962 2.983h15.34c1.999 0 2.871-.874 2.875-2.898.007-3.334-.002-6.667.008-10 .001-.332-.032-.786.158-.967.327-.313.824-.642 1.236-.625.561.023.884.507.881 1.146-.013 2.458-.004 4.916-.004 7.373 0 1.13.01 2.26-.003 3.39-.028 2.427-1.342 4.106-3.681 4.733-.13.035-.246.123-.369.186H11.688z"/><path d="M20.266 4.51c-.19.282-.342.604-.579.84-5.18 5.165-10.369 10.32-15.558 15.477-.71.706-1.007.724-1.623.121-.626-.611-.628-.918-.011-1.558l.18-.179L19.325 2.67c.86-.855 1.496-.852 2.362.008L38.396 19.28c.746.742.744 1.02.099 1.68-.53.542-1.003.526-1.514-.017-.464-.493-.956-.961-1.436-1.439-4.768-4.739-9.537-9.475-14.296-14.222-.216-.216-.335-.529-.5-.796l-.483.024z"/></g></svg>